<svg width="62.000000" height="24.000000" viewBox="0 0 62 24" fill="none" xmlns="http://www.w3.org/2000/svg" xmlns:xlink="http://www.w3.org/1999/xlink">
	<desc>
			Created with Pixso.
	</desc>
	<defs>
		<clipPath id="clip22_3641">
			<rect id="😂 Icon / book" width="14.000001" height="14.000001" transform="translate(8.000000 5.000000)" fill="white" fill-opacity="0"/>
		</clipPath>
	</defs>
	<rect id="😂 Icon / book" width="14.000001" height="14.000001" transform="translate(8.000000 5.000000)" fill="#FFFFFF" fill-opacity="0"/>
	<g clip-path="url(#clip22_3641)">
		<path id="Vector" d="M15 8.50012C14.2019 8.03931 13.2966 7.79675 12.375 7.79675C11.4534 7.79675 10.5481 8.03931 9.75 8.50012L9.75 16.0834C10.5481 15.6227 11.4534 15.3801 12.375 15.3801C13.2966 15.3801 14.2019 15.6227 15 16.0834C15.7981 15.6227 16.7034 15.3801 17.625 15.3801C18.5466 15.3801 19.4519 15.6227 20.25 16.0834L20.25 8.50012C19.4519 8.03931 18.5466 7.79675 17.625 7.79675C16.7034 7.79675 15.7981 8.03931 15 8.50012L15 16.0834" stroke="#828282" stroke-opacity="1.000000" stroke-width="1.000000" stroke-linejoin="round"/>
	</g>
	<path id="Menu Name" d="M30.3726 9.7832L28.148 15L27.4117 15L29.6676 9.85547L26.5797 9.85547L26.5797 9.23242L30.3726 9.23242L30.3726 9.7832Z" fill="#828282" fill-opacity="1.000000" fill-rule="evenodd"/>
	<path id="Menu Name" d="M39.3041 13.7598L36.8725 13.7598L36.4232 15L35.6557 15L37.6713 9.45508L38.5111 9.45508L40.5209 15L39.7514 15L39.3041 13.7598ZM39.0951 13.168L38.0873 10.3516L37.0795 13.168L39.0951 13.168ZM45.1766 10.6152L42.536 17.0645L41.784 17.0645L42.6473 14.9512L40.8797 10.6152L41.6883 10.6152L43.0633 14.168L44.4246 10.6152L45.1766 10.6152ZM45.6317 12.793Q45.6317 12.1191 45.9032 11.6113Q46.1767 11.1035 46.6513 10.8242Q47.1278 10.5449 47.7118 10.5449Q48.288 10.5449 48.7118 10.793Q49.1357 11.0391 49.3446 11.416L49.3446 10.6152L50.079 10.6152L50.079 15L49.3446 15L49.3446 14.1836Q49.1278 14.5684 48.7001 14.8203Q48.2724 15.0723 47.704 15.0723Q47.12 15.0723 46.6474 14.7852Q46.1767 14.4961 45.9032 13.9766Q45.6317 13.4551 45.6317 12.793ZM49.3446 12.8008Q49.3446 12.3047 49.1435 11.9375Q48.9442 11.5684 48.6044 11.373Q48.2646 11.1758 47.8564 11.1758Q47.4482 11.1758 47.1122 11.3691Q46.7763 11.5605 46.5751 11.9297Q46.3759 12.2969 46.3759 12.793Q46.3759 13.2969 46.5751 13.668Q46.7763 14.0391 47.1122 14.2363Q47.4482 14.4316 47.8564 14.4316Q48.2646 14.4316 48.6044 14.2363Q48.9442 14.0391 49.1435 13.668Q49.3446 13.2969 49.3446 12.8008ZM52.1999 11.2168L52.1999 13.8008Q52.1999 14.1191 52.3347 14.252Q52.4714 14.3848 52.8073 14.3848L53.3444 14.3848L53.3444 15L52.6882 15Q52.0808 15 51.7761 14.7207Q51.4714 14.4395 51.4714 13.8008L51.4714 11.2168L50.903 11.2168L50.903 10.6152L51.4714 10.6152L51.4714 9.51172L52.1999 9.51172L52.1999 10.6152L53.3444 10.6152L53.3444 11.2168L52.1999 11.2168Z" fill="#828282" fill-opacity="1.000000" fill-rule="evenodd"/>
</svg>
