<svg width="42.969727" height="42.969604" viewBox="0 0 42.9697 42.9696" fill="none" xmlns="http://www.w3.org/2000/svg" xmlns:xlink="http://www.w3.org/1999/xlink">
	<desc>
			Created with Pixso.
	</desc>
	<defs/>
	<path id="Star 2" d="M17.3438 6.02997L11.4849 4.16431L10.1711 10.1711L4.16431 11.4848L6.03003 17.3437L1.48486 21.4848L6.03003 25.6259L4.16431 31.4848L10.1711 32.7985L11.4849 38.8053L17.3438 36.9396L21.4849 41.4848L25.626 36.9396L31.4849 38.8053L32.7986 32.7985L38.8054 31.4848L36.9397 25.6259L41.4849 21.4848L36.9397 17.3437L38.8054 11.4848L32.7986 10.1711L31.4849 4.16431L25.626 6.02997L21.4849 1.4848L17.3438 6.02997Z" stroke="#00CBBF" stroke-opacity="1.000000" stroke-width="2.000000"/>
	<path id="Menu Name" d="M19.6638 17.7348L19.6638 16.2787L22.5759 16.2787L22.5759 26.4848L20.966 26.4848L20.966 17.7348L19.6638 17.7348Z" fill="#333333" fill-opacity="1.000000" fill-rule="evenodd"/>
</svg>
