<svg width="20.000000" height="20.000000" viewBox="0 0 20 20" fill="none" xmlns="http://www.w3.org/2000/svg" xmlns:xlink="http://www.w3.org/1999/xlink">
	<desc>
			Created with Pixso.
	</desc>
	<defs/>
	<path id="Vector" d="M10 0C9.78198 0 9.56812 0.00201416 9.35791 0.00500488L8.74194 0.0219727L8.44312 0.0349731L7.86401 0.0689697L7.31104 0.11499C2.52588 0.578979 0.579102 2.526 0.11499 7.31097L0.0690918 7.86401L0.0349121 8.44299C0.0300293 8.54102 0.0249023 8.64099 0.0219727 8.742L0.00488281 9.35797L0.000976562 9.67603L0 10C0 10.218 0.00195312 10.432 0.00488281 10.642L0.0219727 11.258L0.0349121 11.557L0.0690918 12.136L0.11499 12.689C0.579102 17.474 2.52588 19.421 7.31104 19.885L7.86401 19.931L8.44312 19.965C8.54102 19.97 8.64111 19.975 8.74194 19.978L9.35791 19.995L10 20L10.6421 19.995L11.2581 19.978L11.5569 19.965L12.136 19.931L12.689 19.885C17.4741 19.421 19.4209 17.474 19.885 12.689L19.9309 12.136L19.9651 11.557C19.97 11.459 19.9751 11.359 19.978 11.258L19.9951 10.642L20 10L19.9951 9.35797L19.978 8.742L19.9651 8.44299L19.9309 7.86401L19.885 7.31097C19.4209 2.526 17.4741 0.578979 12.689 0.11499L12.136 0.0689697L11.5569 0.0349731C11.4573 0.0301514 11.3577 0.0258179 11.2581 0.0219727L10.6421 0.00500488L10.324 0.000976562L10 0ZM6.29297 8.29303C6.46509 8.12085 6.69434 8.0174 6.93726 8.00214C7.18042 7.98682 7.42065 8.06073 7.61304 8.21002L7.70703 8.29303L10 10.585L12.293 8.29303C12.4651 8.12085 12.6943 8.0174 12.9373 8.00214C13.1804 7.98682 13.4207 8.06073 13.613 8.21002L13.707 8.29303C13.8792 8.46521 13.9827 8.69427 13.9978 8.93732C14.0132 9.18036 13.9392 9.42059 13.79 9.61298L13.707 9.70697L10.707 12.707C10.5349 12.8792 10.3057 12.9826 10.0627 12.9979C9.81958 13.0132 9.57935 12.9393 9.38696 12.79L9.29297 12.707L6.29297 9.70697C6.10547 9.51947 6.00024 9.26514 6.00024 9C6.00024 8.73486 6.10547 8.48053 6.29297 8.29303Z" fill="#FFFFFF" fill-opacity="1.000000" fill-rule="nonzero"/>
	<path id="Vector" d="M9.35791 0.00500488L8.74194 0.0219727L8.44312 0.0349731L7.86401 0.0689697L7.31104 0.11499C2.52588 0.578979 0.579102 2.526 0.11499 7.31097L0.0690918 7.86401L0.0349121 8.44299C0.0300293 8.54102 0.0249023 8.64099 0.0219727 8.742L0.00488281 9.35797L0.000976562 9.67603L0 10C0 10.218 0.00195312 10.432 0.00488281 10.642L0.0219727 11.258L0.0349121 11.557L0.0690918 12.136L0.11499 12.689C0.579102 17.474 2.52588 19.421 7.31104 19.885L7.86401 19.931L8.44312 19.965C8.54102 19.97 8.64111 19.975 8.74194 19.978L9.35791 19.995L10 20L10.6421 19.995L11.2581 19.978L11.5569 19.965L12.136 19.931L12.689 19.885C17.4741 19.421 19.4209 17.474 19.885 12.689L19.9309 12.136L19.9651 11.557C19.97 11.459 19.9751 11.359 19.978 11.258L19.9951 10.642L20 10L19.9951 9.35797L19.978 8.742L19.9651 8.44299L19.9309 7.86401L19.885 7.31097C19.4209 2.526 17.4741 0.578979 12.689 0.11499L12.136 0.0689697L11.5569 0.0349731C11.4573 0.0301514 11.3577 0.0258179 11.2581 0.0219727L10.6421 0.00500488L10.324 0.000976562L10 0C9.78198 0 9.56812 0.00201416 9.35791 0.00500488ZM6.93726 8.00214C7.18042 7.98682 7.42065 8.06073 7.61304 8.21002L7.70703 8.29303L10 10.585L12.293 8.29303C12.4651 8.12085 12.6943 8.0174 12.9373 8.00214C13.1804 7.98682 13.4207 8.06073 13.613 8.21002L13.707 8.29303C13.8792 8.46521 13.9827 8.69427 13.9978 8.93732C14.0132 9.18036 13.9392 9.42059 13.79 9.61298L13.707 9.70697L10.707 12.707C10.5349 12.8792 10.3057 12.9826 10.0627 12.9979C9.81958 13.0132 9.57935 12.9393 9.38696 12.79L9.29297 12.707L6.29297 9.70697C6.10547 9.51947 6.00024 9.26514 6.00024 9C6.00024 8.73486 6.10547 8.48053 6.29297 8.29303C6.46509 8.12085 6.69434 8.0174 6.93726 8.00214Z" stroke="#FFFFFF" stroke-opacity="1.000000" stroke-width="0.000000" stroke-linejoin="round"/>
</svg>
