<svg width="72.000000" height="24.000000" viewBox="0 0 72 24" fill="none" xmlns="http://www.w3.org/2000/svg" xmlns:xlink="http://www.w3.org/1999/xlink">
	<desc>
			Created with Pixso.
	</desc>
	<defs>
		<clipPath id="clip22_3634">
			<rect id="😂 Icon / makiyyah" width="14.000001" height="14.000001" transform="translate(8.000000 5.000000)" fill="white" fill-opacity="0"/>
		</clipPath>
	</defs>
	<rect id="😂 Icon / makiyyah" width="14.000001" height="14.000001" transform="translate(8.000000 5.000000)" fill="#FFFFFF" fill-opacity="0"/>
	<g clip-path="url(#clip22_3634)">
		<path id="Vector 74" d="M15.0078 17.8333L19.6667 14.884L19.6667 10.9321L19.6667 9.16113L15.0078 6.16663L10.3335 9.16113L10.3335 10.9321L10.3335 14.884L15.0078 17.8333ZM15.0078 12.1555L10.3335 9.16113M19.6667 9.16113L15.0078 12.1555L15.0078 13.9039L15.0078 17.8333M19.6667 10.9321L15.0078 13.9039M10.3335 10.9321L15.0078 13.9039" stroke="#828282" stroke-opacity="1.000000" stroke-width="1.000000" stroke-linejoin="round"/>
		<path id="Vector 76" d="M19.6707 9.16199L19.6707 11.0094L15.0247 13.8814L10.1956 11.0094L10.1956 9.39984L15.0247 12.0156L19.6707 9.16199Z" fill="#828282" fill-opacity="1.000000" fill-rule="evenodd"/>
	</g>
	<path id="Menu Name" d="M32.3115 9.46484L32.3115 15L31.5849 15L31.5849 10.8711L29.7431 15L29.2314 15L27.3837 10.8633L27.3837 15L26.6552 15L26.6552 9.46484L27.4404 9.46484L29.4873 14.0391L31.5361 9.46484L32.3115 9.46484ZM33.2718 12.793Q33.2718 12.1191 33.5432 11.6113Q33.8167 11.1035 34.2913 10.8242Q34.7678 10.5449 35.3518 10.5449Q35.928 10.5449 36.3518 10.793Q36.7757 11.0391 36.9846 11.416L36.9846 10.6152L37.719 10.6152L37.719 15L36.9846 15L36.9846 14.1836Q36.7678 14.5684 36.3401 14.8203Q35.9124 15.0723 35.344 15.0723Q34.76 15.0723 34.2874 14.7852Q33.8167 14.4961 33.5432 13.9766Q33.2718 13.4551 33.2718 12.793ZM36.9846 12.8008Q36.9846 12.3047 36.7835 11.9375Q36.5843 11.5684 36.2444 11.373Q35.9046 11.1758 35.4964 11.1758Q35.0882 11.1758 34.7522 11.3691Q34.4163 11.5605 34.2151 11.9297Q34.0159 12.2969 34.0159 12.793Q34.0159 13.2969 34.2151 13.668Q34.4163 14.0391 34.7522 14.2363Q35.0882 14.4316 35.4964 14.4316Q35.9046 14.4316 36.2444 14.2363Q36.5843 14.0391 36.7835 13.668Q36.9846 13.2969 36.9846 12.8008ZM41.4005 15L39.6797 13.0645L39.6797 15L38.9512 15L38.9512 9.08008L39.6797 9.08008L39.6797 12.5605L41.3672 10.6152L42.3848 10.6152L40.3204 12.8008L42.3926 15L41.4005 15ZM43.4482 9.9043Q43.2392 9.9043 43.0947 9.75977Q42.9521 9.61523 42.9521 9.4082Q42.9521 9.19922 43.0947 9.05664Q43.2392 8.91211 43.4482 8.91211Q43.6474 8.91211 43.788 9.05664Q43.9287 9.19922 43.9287 9.4082Q43.9287 9.61523 43.788 9.75977Q43.6474 9.9043 43.4482 9.9043ZM43.7998 10.6152L43.7998 15L43.0712 15L43.0712 10.6152L43.7998 10.6152ZM48.8166 10.6152L46.176 17.0645L45.424 17.0645L46.2873 14.9512L44.5197 10.6152L45.3283 10.6152L46.7033 14.168L48.0646 10.6152L48.8166 10.6152ZM53.3206 10.6152L50.68 17.0645L49.928 17.0645L50.7913 14.9512L49.0237 10.6152L49.8323 10.6152L51.2073 14.168L52.5686 10.6152L53.3206 10.6152ZM53.7757 12.793Q53.7757 12.1191 54.0472 11.6113Q54.3207 11.1035 54.7953 10.8242Q55.2718 10.5449 55.8558 10.5449Q56.432 10.5449 56.8558 10.793Q57.2797 11.0391 57.4886 11.416L57.4886 10.6152L58.223 10.6152L58.223 15L57.4886 15L57.4886 14.1836Q57.2718 14.5684 56.8441 14.8203Q56.4164 15.0723 55.848 15.0723Q55.264 15.0723 54.7914 14.7852Q54.3207 14.4961 54.0472 13.9766Q53.7757 13.4551 53.7757 12.793ZM57.4886 12.8008Q57.4886 12.3047 57.2875 11.9375Q57.0882 11.5684 56.7484 11.373Q56.4086 11.1758 56.0004 11.1758Q55.5922 11.1758 55.2562 11.3691Q54.9203 11.5605 54.7191 11.9297Q54.5199 12.2969 54.5199 12.793Q54.5199 13.2969 54.7191 13.668Q54.9203 14.0391 55.2562 14.2363Q55.5922 14.4316 56.0004 14.4316Q56.4086 14.4316 56.7484 14.2363Q57.0882 14.0391 57.2875 13.668Q57.4886 13.2969 57.4886 12.8008ZM61.633 10.5352Q62.1271 10.5352 62.5275 10.748Q62.9279 10.9609 63.1564 11.3848Q63.3849 11.8086 63.3849 12.416L63.3849 15L62.6642 15L62.6642 12.5195Q62.6642 11.8633 62.3361 11.5156Q62.008 11.168 61.4396 11.168Q60.8634 11.168 60.5236 11.5293Q60.1838 11.8887 60.1838 12.5762L60.1838 15L59.4552 15L59.4552 9.08008L60.1838 9.08008L60.1838 11.2402Q60.4006 10.9043 60.7795 10.7207Q61.1603 10.5352 61.633 10.5352Z" fill="#828282" fill-opacity="1.000000" fill-rule="evenodd"/>
</svg>
